<svg width="33" height="33" viewBox="0 0 33 33" fill="none" xmlns="http://www.w3.org/2000/svg">
<path d="M15.5408 1.25352C15.8227 0.29723 17.1773 0.297231 17.4592 1.25352L20.5582 11.7654C20.6542 12.0911 20.909 12.3458 21.2346 12.4418L31.7465 15.5408C32.7028 15.8227 32.7028 17.1773 31.7465 17.4592L21.2346 20.5582C20.9089 20.6542 20.6542 20.909 20.5582 21.2346L17.4592 31.7465C17.1773 32.7028 15.8227 32.7028 15.5408 31.7465L12.4418 21.2346C12.3458 20.9089 12.0911 20.6542 11.7654 20.5582L1.25352 17.4592C0.29723 17.1773 0.297231 15.8227 1.25352 15.5408L11.7654 12.4418C12.0911 12.3458 12.3458 12.0911 12.4418 11.7654L15.5408 1.25352Z" fill="#00EEFF"/>
</svg>
