<svg width="62" height="61" viewBox="0 0 62 61" fill="none" xmlns="http://www.w3.org/2000/svg">
<path d="M42.3529 0.474559C42.9664 -0.444244 44.3971 0.163644 44.1616 1.24303L39.9696 20.4551C39.8261 21.1128 40.3602 21.7215 41.031 21.6647L60.6249 20.0052C61.7258 19.9119 62.1425 21.4095 61.1518 21.8984L43.5175 30.5995C42.9138 30.8973 42.771 31.6945 43.2336 32.1835L56.7477 46.468C57.507 47.2705 56.5959 48.5301 55.596 48.0603L37.7984 39.6983C37.1892 39.412 36.4768 39.7973 36.383 40.4639L33.6408 59.9359C33.4868 61.0299 31.934 61.103 31.6779 60.0283L27.1189 40.8999C26.9629 40.2451 26.2175 39.9284 25.6378 40.2707L8.70429 50.2673C7.75292 50.829 6.72764 49.6605 7.40816 48.7902L19.5209 33.2996C19.9355 32.7693 19.7184 31.9891 19.0894 31.7492L0.715787 24.7429C-0.316488 24.3493 -0.0422101 22.8192 1.06252 22.8086L20.7257 22.6204C21.3989 22.614 21.8735 21.9578 21.6688 21.3165L15.6908 2.58305C15.355 1.53056 16.7223 0.790992 17.4193 1.64811L29.8263 16.9041C30.251 17.4264 31.06 17.3883 31.4338 16.8284L42.3529 0.474559Z" fill="url(#paint0_linear_19_714)"/>
<defs>
<linearGradient id="paint0_linear_19_714" x1="45.2887" y1="-3.92239" x2="17.1334" y2="62.3444" gradientUnits="userSpaceOnUse">
<stop stop-color="#A9C6EB"/>
<stop offset="1" stop-color="#00EEFF"/>
</linearGradient>
</defs>
</svg>
